<?xml version="1.0" encoding="UTF-8"?>
<svg width="12px" height="12px" viewBox="0 0 12 12" version="1.1" xmlns="http://www.w3.org/2000/svg" xmlns:xlink="http://www.w3.org/1999/xlink">
    <title>search</title>
    <g id="导航栏-Navigation-Bar" stroke="none" stroke-width="1" fill="none" fill-rule="evenodd">
        <g id="初始状态04" transform="translate(-157.000000, -20.000000)" fill="#8F9598" fill-rule="nonzero">
            <g id="编组-29" transform="translate(2.000000, 2.000000)">
                <g id="编组-14" transform="translate(0.000000, 4.000000)">
                    <g id="编组-2" transform="translate(149.000000, 8.000000)">
                        <path d="M17.8658619,17.1690297 L15.1068176,14.4236992 C15.8925038,13.4683047 16.285347,12.3746295 16.285347,11.1426735 C16.285347,9.72300998 15.7830792,8.51105327 14.7785436,7.50680343 C13.7740081,6.5025536 12.5620514,6.00028583 11.1426735,6.00000012 C9.7232956,5.99971442 8.51133888,6.50198219 7.50680333,7.50680343 C6.50226778,8.51162468 6,9.72358138 6,11.1426735 C6,12.5617657 6.50226778,13.7737224 7.50680333,14.7785437 C8.51133888,15.7833649 9.7232956,16.2856327 11.1426735,16.285347 C12.3749152,16.285347 13.4685904,15.8925039 14.4236992,15.1068176 L17.1827435,17.8658619 C17.2721689,17.9552873 17.3837363,18 17.5174458,18 C17.6511553,18 17.767294,17.9552873 17.8658619,17.8658619 C17.9552873,17.7675797 18,17.651441 18,17.5174458 C18,17.3834506 17.9552873,17.2673119 17.8658619,17.1690297 Z M12.7630442,14.9992501 C12.2542052,15.2135281 11.7140816,15.3206671 11.1426735,15.3206671 C10.5712653,15.3206671 10.0311417,15.2135281 9.52230277,14.9992501 C9.02232063,14.784972 8.57819364,14.483697 8.18992179,14.0954252 C7.80164994,13.7071534 7.5048034,13.2630264 7.29938216,12.7630442 C7.07624728,12.2542053 6.96467983,11.7140817 6.96467983,11.1426735 C6.96467983,10.5712654 7.07624728,10.0311418 7.29938216,9.52230286 C7.5048034,9.02232072 7.80164994,8.57819373 8.18992179,8.18992189 C8.57819364,7.80165004 9.02232063,7.50037509 9.52230277,7.28609703 C10.0311417,7.07181897 10.5712653,6.96467994 11.1426735,6.96467994 C11.7140816,6.96467994 12.2542052,7.07181897 12.7630442,7.28609703 C13.2630263,7.50037509 13.7071533,7.80165004 14.0954252,8.18992189 C14.483697,8.57819373 14.784972,9.02232072 14.99925,9.52230286 C15.2135281,10.0311418 15.3206671,10.5712654 15.3206671,11.1426735 C15.3206671,11.7140817 15.2135281,12.2542053 14.99925,12.7630442 C14.784972,13.2630264 14.483697,13.7071534 14.0954252,14.0954252 C13.7071533,14.483697 13.2630263,14.784972 12.7630442,14.9992501 Z" id="search"></path>
                    </g>
                </g>
            </g>
        </g>
    </g>
</svg>