<?xml version="1.0" encoding="UTF-8"?>
<svg width="8px" height="8px" viewBox="0 0 8 8" version="1.1" xmlns="http://www.w3.org/2000/svg" xmlns:xlink="http://www.w3.org/1999/xlink">
    <title>close</title>
    <g id="导航栏-Navigation-Bar" stroke="none" stroke-width="1" fill="none" fill-rule="evenodd">
        <g id="初始状态04" transform="translate(-804.000000, -178.000000)" fill="#FFEBC8" fill-rule="nonzero">
            <g id="编组-12备份-6" transform="translate(52.000000, 170.000000)">
                <g id="编组-4备份-2" transform="translate(744.000000, 0.000000)">
                    <path d="M12.695289,12 L15.8509232,8.83204222 C15.950307,8.74087415 15.9999989,8.62704658 15.9999989,8.4905595 C15.9999989,8.35407243 15.9524272,8.23812467 15.8572838,8.14271623 C15.7621404,8.04730779 15.6461926,7.99973608 15.5094405,8.0000011 C15.3726884,8.00026612 15.2588608,8.04995802 15.1679578,8.14907679 L12,11.304711 L8.83204222,8.14907679 C8.74087415,8.049693 8.62704658,8.0000011 8.4905595,8.0000011 C8.35407243,8.0000011 8.23812467,8.04757281 8.14271623,8.14271623 C8.04730779,8.23785965 7.99973608,8.3538074 8.0000011,8.4905595 C8.00026612,8.6273116 8.04995802,8.74113917 8.14907679,8.83204222 L11.304711,12 L8.14907679,15.1679578 C8.049693,15.2591259 8.0000011,15.3729534 8.0000011,15.5094405 C8.0000011,15.6459276 8.04757281,15.7618753 8.14271623,15.8572838 C8.23785965,15.9526922 8.3538074,16.0002639 8.4905595,15.9999989 C8.6273116,15.9997339 8.74113917,15.950042 8.83204222,15.8509232 L12,12.6829654 L15.1679578,15.8509232 C15.2591259,15.950307 15.3729534,15.9999989 15.5094405,15.9999989 C15.6459276,15.9999989 15.7618753,15.9524272 15.8572838,15.8572838 C15.9526922,15.7621404 16.0002639,15.6461926 15.9999989,15.5094405 C15.9997339,15.3726884 15.950042,15.2588608 15.8509232,15.1679578 L12.695289,12 Z" id="close"></path>
                </g>
            </g>
        </g>
    </g>
</svg>